<svg width="37" height="37" viewBox="0 0 37 37" fill="none" xmlns="http://www.w3.org/2000/svg">
<path d="M23.3373 23.8428C23.3371 24.1657 23.2087 24.4754 22.9803 24.7038C22.752 24.9322 22.4423 25.0605 22.1193 25.0607L12.3524 25.0607C12.0294 25.0605 11.7197 24.9322 11.4914 24.7038C11.263 24.4754 11.1346 24.1657 11.1344 23.8428L11.1344 14.0758C11.1453 13.7601 11.2784 13.4609 11.5057 13.2414C11.7329 13.0219 12.0365 12.8992 12.3524 12.8992C12.6683 12.8992 12.9719 13.0219 13.1991 13.2414C13.4264 13.4609 13.5595 13.7601 13.5704 14.0758L13.5704 20.9012L22.1193 12.3523C22.3479 12.1237 22.6579 11.9953 22.9811 11.9953C23.3043 11.9953 23.6143 12.1237 23.8429 12.3523C24.0714 12.5808 24.1998 12.8908 24.1998 13.2141C24.1998 13.5373 24.0714 13.8473 23.8429 14.0758L15.294 22.6248L22.1193 22.6248C22.4423 22.625 22.752 22.7533 22.9803 22.9817C23.2087 23.2101 23.3371 23.5198 23.3373 23.8428Z" fill="#05B38A"/>
</svg>
