<svg width="27" height="34" viewBox="0 0 27 34" fill="none" xmlns="http://www.w3.org/2000/svg">
<path d="M11.6667 25H15V15H11.6667V25ZM13.3333 11.6667C13.8056 11.6667 14.2017 11.5067 14.5217 11.1867C14.8417 10.8667 15.0011 10.4711 15 10C14.9989 9.52889 14.8389 9.13333 14.52 8.81333C14.2011 8.49333 13.8056 8.33333 13.3333 8.33333C12.8611 8.33333 12.4656 8.49333 12.1467 8.81333C11.8278 9.13333 11.6678 9.52889 11.6667 10C11.6656 10.4711 11.8256 10.8672 12.1467 11.1883C12.4678 11.5094 12.8633 11.6689 13.3333 11.6667ZM13.3333 33.3333C9.47222 32.3611 6.28445 30.1456 3.77 26.6867C1.25556 23.2278 -0.00111037 19.3878 7.3616e-07 15.1667V5L13.3333 0L26.6667 5V15.1667C26.6667 19.3889 25.41 23.2294 22.8967 26.6883C20.3833 30.1472 17.1956 32.3622 13.3333 33.3333ZM13.3333 29.8333C16.2222 28.9167 18.6111 27.0833 20.5 24.3333C22.3889 21.5833 23.3333 18.5278 23.3333 15.1667V7.29167L13.3333 3.54167L3.33333 7.29167V15.1667C3.33333 18.5278 4.27778 21.5833 6.16667 24.3333C8.05556 27.0833 10.4444 28.9167 13.3333 29.8333Z" fill="#EB5656"/>
</svg>
